<svg width="884" height="200" viewBox="0 0 884 200" fill="none" xmlns="http://www.w3.org/2000/svg">
<path d="M161.995 166.5C156.095 166.5 150.745 165.25 145.945 162.75C141.145 160.25 137.345 156.6 134.545 151.8C131.745 146.9 130.345 140.85 130.345 133.65C130.345 126.65 131.795 120.65 134.695 115.65C137.695 110.55 141.595 106.65 146.395 103.95C151.295 101.15 156.595 99.75 162.295 99.75C168.295 99.75 173.245 101 177.145 103.5C181.045 106 184.045 109 186.145 112.5L185.245 114.9L186.745 102.3H200.695V165H185.545V149.1L187.045 152.85C186.645 153.65 185.795 154.8 184.495 156.3C183.195 157.8 181.495 159.35 179.395 160.95C177.295 162.45 174.745 163.75 171.745 164.85C168.845 165.95 165.595 166.5 161.995 166.5ZM166.045 154.05C171.045 154.05 175.245 152.75 178.645 150.15C182.145 147.45 184.445 143.8 185.545 139.2V126.3C184.345 122.2 181.895 118.8 178.195 116.1C174.595 113.4 170.395 112.05 165.595 112.05C161.995 112.05 158.695 112.95 155.695 114.75C152.695 116.45 150.295 118.9 148.495 122.1C146.695 125.2 145.795 128.8 145.795 132.9C145.795 136.9 146.695 140.5 148.495 143.7C150.395 146.9 152.895 149.45 155.995 151.35C159.095 153.15 162.445 154.05 166.045 154.05ZM224.368 48.45H239.518V165H224.368V48.45ZM263.186 102.3H278.336V165H263.186V102.3ZM262.436 79.8C262.436 77.5 263.336 75.55 265.136 73.95C267.036 72.35 269.086 71.55 271.286 71.55C273.486 71.55 275.486 72.35 277.286 73.95C279.086 75.55 279.986 77.5 279.986 79.8C279.986 82.3 279.086 84.3 277.286 85.8C275.486 87.3 273.486 88.05 271.286 88.05C269.086 88.05 267.036 87.3 265.136 85.8C263.336 84.3 262.436 82.3 262.436 79.8Z" fill="#21479E"/>
<path d="M437.45 133.05C437.45 126.75 438.95 121.1 441.95 116.1C444.95 111 449.1 107 454.4 104.1C459.7 101.2 465.75 99.75 472.55 99.75C479.45 99.75 485.45 101.2 490.55 104.1C495.75 107 499.75 111 502.55 116.1C505.45 121.1 506.9 126.75 506.9 133.05C506.9 139.35 505.45 145.05 502.55 150.15C499.65 155.15 495.6 159.15 490.4 162.15C485.3 165.05 479.25 166.5 472.25 166.5C465.65 166.5 459.7 165.15 454.4 162.45C449.2 159.75 445.05 155.9 441.95 150.9C438.95 145.8 437.45 139.85 437.45 133.05ZM452.75 133.2C452.75 137.1 453.6 140.65 455.3 143.85C457 146.95 459.3 149.45 462.2 151.35C465.2 153.15 468.5 154.05 472.1 154.05C477.8 154.05 482.45 152.05 486.05 148.05C489.75 144.05 491.6 139.1 491.6 133.2C491.6 127.3 489.75 122.35 486.05 118.35C482.45 114.25 477.8 112.2 472.1 112.2C468.4 112.2 465.1 113.15 462.2 115.05C459.3 116.95 457 119.5 455.3 122.7C453.6 125.9 452.75 129.4 452.75 133.2ZM538.824 102.3L540.174 116.85L539.574 114.75C541.574 110.25 544.774 106.65 549.174 103.95C553.674 101.25 558.924 99.9 564.924 99.9C570.824 99.9 575.674 101.65 579.474 105.15C583.274 108.55 585.224 113.05 585.324 118.65V165H570.174V123.9C570.074 120.7 569.124 118.1 567.324 116.1C565.524 114 562.724 112.9 558.924 112.8C553.624 112.8 549.174 115 545.574 119.4C542.074 123.8 540.324 129.45 540.324 136.35V165H525.174V102.3H538.824ZM622.76 102.3L624.11 116.85L623.51 114.75C625.51 110.25 628.71 106.65 633.11 103.95C637.61 101.25 642.86 99.9 648.86 99.9C654.76 99.9 659.61 101.65 663.41 105.15C667.21 108.55 669.16 113.05 669.26 118.65V165H654.11V123.9C654.01 120.7 653.06 118.1 651.26 116.1C649.46 114 646.66 112.9 642.86 112.8C637.56 112.8 633.11 115 629.51 119.4C626.01 123.8 624.26 129.45 624.26 136.35V165H609.11V102.3H622.76ZM722.445 166.5C715.245 166.5 709.045 165.1 703.845 162.3C698.645 159.4 694.645 155.45 691.845 150.45C689.045 145.35 687.645 139.6 687.645 133.2C687.645 127 689.195 121.4 692.295 116.4C695.495 111.3 699.745 107.25 705.045 104.25C710.345 101.25 716.245 99.75 722.745 99.75C731.145 99.75 738.095 102.2 743.595 107.1C749.195 111.9 752.945 118.7 754.845 127.5L703.695 145.2L700.095 136.5L741.195 121.5L738.045 123.6C736.845 120.4 734.945 117.65 732.345 115.35C729.745 112.95 726.195 111.75 721.695 111.75C716.095 111.75 711.495 113.7 707.895 117.6C704.395 121.4 702.645 126.3 702.645 132.3C702.645 138.7 704.545 143.85 708.345 147.75C712.145 151.65 716.945 153.6 722.745 153.6C725.445 153.6 728.045 153.15 730.545 152.25C733.045 151.25 735.395 149.95 737.595 148.35L744.495 159.6C741.295 161.7 737.745 163.4 733.845 164.7C730.045 165.9 726.245 166.5 722.445 166.5ZM823.154 159.15C820.354 161.45 816.954 163.25 812.954 164.55C809.054 165.85 805.104 166.5 801.104 166.5C794.304 166.5 788.254 165.15 782.954 162.45C777.754 159.75 773.704 155.95 770.804 151.05C767.904 146.15 766.454 140.35 766.454 133.65C766.454 126.85 768.004 121 771.104 116.1C774.204 111.2 778.254 107.45 783.254 104.85C788.354 102.15 793.804 100.8 799.604 100.8C804.804 100.8 809.354 101.5 813.254 102.9C817.254 104.3 820.704 106.25 823.604 108.75L816.104 118.5C814.404 117.1 812.254 115.85 809.654 114.75C807.054 113.65 804.154 113.1 800.954 113.1C797.354 113.1 794.054 114 791.054 115.8C788.154 117.6 785.854 120.05 784.154 123.15C782.454 126.25 781.604 129.75 781.604 133.65C781.604 137.45 782.454 140.9 784.154 144C785.954 147.1 788.404 149.55 791.504 151.35C794.704 153.15 798.304 154.05 802.304 154.05C804.904 154.05 807.304 153.65 809.504 152.85C811.804 152.05 813.804 151 815.504 149.7L823.154 159.15ZM846.848 74.85H862.148V102.45H878.948V114.3H862.148V165H846.848V114.3H835.748V102.45H846.848V74.85Z" fill="#21479E"/>
<path d="M18.2126 120.33V166.655C18.5266 166.97 18.8406 167.285 19.1546 167.6C24.8068 171.697 30.1449 175.164 35.4831 178V116.233C44.2754 114.658 54.3237 113.397 65 113.397C75.6763 113.397 85.7246 114.342 93.8889 115.918V177.685C99.227 174.849 104.565 171.697 109.903 167.285C110.217 166.97 110.531 166.655 111.159 166.34V119.7C118.382 121.906 122.778 123.797 122.778 123.797L130 108.04C129.372 107.725 122.778 104.888 111.159 101.737V51.3151H93.8889V97.9553C85.4106 96.6948 75.6763 95.7494 65 95.7494C54.3237 95.7494 44.5894 96.6948 35.4831 98.2705V51H18.2126V101.737C7.53623 104.573 0.628019 107.094 0 107.409L6.28019 123.797C6.28019 123.797 10.9903 122.221 18.2126 120.33Z" fill="#21479E"/>
<path d="M297.45 156.75C299.15 157.85 301.6 159.2 304.8 160.8C307.9 162.3 311.6 163.6 315.9 164.7C320.1 165.8 324.7 166.3 329.7 166.2C338.2 166.1 345.8 164.6 352.5 161.7C359.2 158.8 364.95 154.85 369.75 149.85C374.45 144.75 378.05 138.95 380.55 132.45C383.05 125.85 384.3 118.85 384.3 111.45C384.3 103.25 383 95.75 380.4 88.95C377.7 82.05 373.95 76.1 369.15 71.1C364.35 66 358.7 62.05 352.2 59.25C345.6 56.45 338.4 55.05 330.6 55.05C324 55.05 318 55.95 312.6 57.75C307.2 59.55 302.65 61.6 298.95 63.9L305.25 78.6C308.15 76.6 311.75 74.7 316.05 72.9C320.25 71.1 324.95 70.2 330.15 70.2C336.95 70.2 343.25 72 349.05 75.6C354.75 79.2 359.35 84.05 362.85 90.15C366.25 96.25 367.95 103.1 367.95 110.7C367.95 118.4 366.4 125.3 363.3 131.4C360.1 137.5 355.6 142.3 349.8 145.8C344 149.3 337.2 151.05 329.4 151.05C323.8 151.05 318.9 150.2 314.7 148.5C310.4 146.8 306.9 144.85 304.2 142.65L297.45 156.75ZM344.55 187.65C343.45 188.75 342.1 189.65 340.5 190.35C338.8 191.15 336.9 191.55 334.8 191.55C332.3 191.55 330.05 191 328.05 189.9C325.95 188.8 324.9 187.15 324.9 184.95C324.9 183.35 325.6 181.85 327 180.45C328.3 179.15 330.7 178.5 334.2 178.5C335.8 178.5 337.5 178.7 339.3 179.1C341.1 179.5 342.65 179.9 343.95 180.3L346.5 173.1L336.15 163.65L324.45 164.1L335.4 176.85L338.7 173.1C337.6 172.6 336.35 172.25 334.95 172.05C333.45 171.85 332 171.7 330.6 171.6C325.2 171.5 320.8 172.55 317.4 174.75C313.9 177.05 312.15 180.4 312.15 184.8C312.15 188.2 313.15 191 315.15 193.2C317.15 195.4 319.75 197.05 322.95 198.15C326.05 199.25 329.45 199.8 333.15 199.8C337.05 199.8 340.3 199.2 342.9 198C345.5 196.9 347.65 195.55 349.35 193.95L344.55 187.65Z" fill="#21479E"/>
<path d="M430.55 156.75C428.85 157.85 426.4 159.2 423.2 160.8C420.1 162.3 416.4 163.6 412.1 164.7C407.9 165.8 403.3 166.3 398.3 166.2C389.8 166.1 382.2 164.6 375.5 161.7C368.8 158.8 363.05 154.85 358.25 149.85C353.55 144.75 349.95 138.95 347.45 132.45C344.95 125.85 343.7 118.85 343.7 111.45C343.7 103.25 345 95.7501 347.6 88.9501C350.3 82.05 354.05 76.1 358.85 71.1C363.65 66 369.3 62.05 375.8 59.25C382.4 56.45 389.6 55.05 397.4 55.05C404 55.05 410 55.95 415.4 57.75C420.8 59.5501 425.35 61.6001 429.05 63.9001L422.75 78.6001C419.85 76.6001 416.25 74.7 411.95 72.9C407.75 71.1 403.05 70.2001 397.85 70.2001C391.05 70.2001 384.75 72.0001 378.95 75.6001C373.25 79.2001 368.65 84.0501 365.15 90.1501C361.75 96.2501 360.05 103.1 360.05 110.7C360.05 118.4 361.6 125.3 364.7 131.4C367.9 137.5 372.4 142.3 378.2 145.8C384 149.3 390.8 151.05 398.6 151.05C404.2 151.05 409.1 150.2 413.3 148.5C417.6 146.8 421.1 144.85 423.8 142.65L430.55 156.75Z" fill="#21479E"/>
<mask id="mask0_12_4" style="mask-type:alpha" maskUnits="userSpaceOnUse" x="343" y="55" width="88" height="112">
<path d="M430.55 156.75C428.85 157.85 426.4 159.2 423.2 160.8C420.1 162.3 416.4 163.6 412.1 164.7C407.9 165.8 403.3 166.3 398.3 166.2C389.8 166.1 382.2 164.6 375.5 161.7C368.8 158.8 363.05 154.85 358.25 149.85C353.55 144.75 349.95 138.95 347.45 132.45C344.95 125.85 343.7 118.85 343.7 111.45C343.7 103.25 345 95.7501 347.6 88.9501C350.3 82.05 354.05 76.1 358.85 71.1C363.65 66 369.3 62.05 375.8 59.25C382.4 56.45 389.6 55.05 397.4 55.05C404 55.05 410 55.95 415.4 57.75C420.8 59.5501 425.35 61.6001 429.05 63.9001L422.75 78.6001C419.85 76.6001 416.25 74.7 411.95 72.9C407.75 71.1 403.05 70.2001 397.85 70.2001C391.05 70.2001 384.75 72.0001 378.95 75.6001C373.25 79.2001 368.65 84.0501 365.15 90.1501C361.75 96.2501 360.05 103.1 360.05 110.7C360.05 118.4 361.6 125.3 364.7 131.4C367.9 137.5 372.4 142.3 378.2 145.8C384 149.3 390.8 151.05 398.6 151.05C404.2 151.05 409.1 150.2 413.3 148.5C417.6 146.8 421.1 144.85 423.8 142.65L430.55 156.75Z" fill="black"/>
</mask>
<g mask="url(#mask0_12_4)">
</g>
<mask id="mask1_12_4" style="mask-type:alpha" maskUnits="userSpaceOnUse" x="338" y="50" width="99" height="122">
<path fill-rule="evenodd" clip-rule="evenodd" d="M436.959 158.558L433.266 160.948C431.337 162.196 428.697 163.642 425.436 165.272L425.407 165.287L425.378 165.301C421.91 166.979 417.885 168.38 413.355 169.54C408.657 170.769 403.601 171.305 398.221 171.199C389.173 171.091 380.909 169.489 373.514 166.289C366.237 163.139 359.927 158.817 354.643 153.313L354.608 153.276L354.573 153.238C349.444 147.673 345.509 141.331 342.783 134.245L342.779 134.233L342.774 134.221C340.05 127.028 338.7 119.425 338.7 111.45C338.7 102.716 340.086 94.6019 342.93 87.1644L342.937 87.1462L342.944 87.1281C345.863 79.6684 349.95 73.1563 355.226 67.6553C360.496 62.0605 366.708 57.7224 373.822 54.658L373.835 54.6525L373.847 54.6471C381.117 51.5628 388.988 50.05 397.4 50.05C404.453 50.05 410.997 51.012 416.981 53.0066C422.646 54.8949 427.574 57.0954 431.69 59.6536L435.338 61.9214L424.94 86.1839L419.911 82.7161C417.37 80.9637 414.096 79.2188 410.019 77.5123L410 77.5041L409.98 77.4958C406.483 75.9969 402.466 75.2001 397.85 75.2001C391.992 75.2001 386.61 76.7343 381.603 79.8382C376.638 82.9776 372.609 87.2057 369.502 92.6113C366.563 97.8957 365.05 103.886 365.05 110.7C365.05 117.7 366.452 123.798 369.143 129.106C371.925 134.398 375.788 138.505 380.783 141.519C385.692 144.481 391.57 146.05 398.6 146.05C403.704 146.05 407.943 145.274 411.424 143.865L411.443 143.858L411.462 143.85C415.431 142.281 418.445 140.563 420.642 138.774L425.567 134.761L436.959 158.558ZM364.7 131.4C361.6 125.3 360.05 118.4 360.05 110.7C360.05 103.1 361.75 96.2501 365.15 90.1501C368.65 84.05 373.25 79.2001 378.95 75.6001C384.75 72.0001 391.05 70.2001 397.85 70.2001C403.05 70.2001 407.75 71.1001 411.95 72.9C414.325 73.8944 416.487 74.9193 418.435 75.9747C420.014 76.8298 421.452 77.7049 422.75 78.6001L429.05 63.9001C425.35 61.6 420.8 59.55 415.4 57.75C410 55.95 404 55.05 397.4 55.05C389.6 55.05 382.4 56.45 375.8 59.25C369.3 62.05 363.65 66 358.85 71.1C354.05 76.1 350.3 82.05 347.6 88.9501C345 95.7501 343.7 103.25 343.7 111.45C343.7 118.85 344.95 125.85 347.45 132.45C349.95 138.95 353.55 144.75 358.25 149.85C363.05 154.85 368.8 158.8 375.5 161.7C382.2 164.6 389.8 166.1 398.3 166.2C403.3 166.3 407.9 165.8 412.1 164.7C416.4 163.6 420.1 162.3 423.2 160.8C426.4 159.2 428.85 157.85 430.55 156.75L423.8 142.65C422.572 143.651 421.178 144.6 419.619 145.497C417.751 146.572 415.644 147.573 413.3 148.5C409.1 150.2 404.2 151.05 398.6 151.05C390.8 151.05 384 149.3 378.2 145.8C372.4 142.3 367.9 137.5 364.7 131.4Z" fill="white"/>
</mask>
<g mask="url(#mask1_12_4)">
<path d="M297.45 156.75C299.15 157.85 301.6 159.2 304.8 160.8C307.9 162.3 311.6 163.6 315.9 164.7C320.1 165.8 324.7 166.3 329.7 166.2C338.2 166.1 345.8 164.6 352.5 161.7C359.2 158.8 364.95 154.85 369.75 149.85C374.45 144.75 378.05 138.95 380.55 132.45C383.05 125.85 384.3 118.85 384.3 111.45C384.3 103.25 383 95.75 380.4 88.95C377.7 82.05 373.95 76.1 369.15 71.1C364.35 66 358.7 62.05 352.2 59.25C345.6 56.45 338.4 55.05 330.6 55.05C324 55.05 318 55.95 312.6 57.75C307.2 59.55 302.65 61.6 298.95 63.9L305.25 78.6C308.15 76.6 311.75 74.7 316.05 72.9C320.25 71.1 324.95 70.2 330.15 70.2C336.95 70.2 343.25 72 349.05 75.6C354.75 79.2 359.35 84.05 362.85 90.15C366.25 96.25 367.95 103.1 367.95 110.7C367.95 118.4 366.4 125.3 363.3 131.4C360.1 137.5 355.6 142.3 349.8 145.8C344 149.3 337.2 151.05 329.4 151.05C323.8 151.05 318.9 150.2 314.7 148.5C310.4 146.8 306.9 144.85 304.2 142.65L297.45 156.75ZM344.55 187.65C343.45 188.75 342.1 189.65 340.5 190.35C338.8 191.15 336.9 191.55 334.8 191.55C332.3 191.55 330.05 191 328.05 189.9C325.95 188.8 324.9 187.15 324.9 184.95C324.9 183.35 325.6 181.85 327 180.45C328.3 179.15 330.7 178.5 334.2 178.5C335.8 178.5 337.5 178.7 339.3 179.1C341.1 179.5 342.65 179.9 343.95 180.3L346.5 173.1L336.15 163.65L324.45 164.1L335.4 176.85L338.7 173.1C337.6 172.6 336.35 172.25 334.95 172.05C333.45 171.85 332 171.7 330.6 171.6C325.2 171.5 320.8 172.55 317.4 174.75C313.9 177.05 312.15 180.4 312.15 184.8C312.15 188.2 313.15 191 315.15 193.2C317.15 195.4 319.75 197.05 322.95 198.15C326.05 199.25 329.45 199.8 333.15 199.8C337.05 199.8 340.3 199.2 342.9 198C345.5 196.9 347.65 195.55 349.35 193.95L344.55 187.65Z" fill="#F6F8FB"/>
</g>
</svg>
